<svg width="1262" height="263" viewBox="0 0 1262 263" fill="none" xmlns="http://www.w3.org/2000/svg">
<path d="M146.09 129.78H231.96V211.31H197.86V202.94C197.86 197.67 199.1 192.4 201.27 187.75L204.06 182.17L200.03 180L197.55 184.96C194.45 190.85 189.8 196.12 183.6 199.53C165.31 209.76 143.61 215.65 120.36 215.65C54.02 215.65 0.390039 167.6 0.390039 108.08C0.390039 48.87 54.02 0.81999 120.36 0.81999C161.9 0.81999 198.48 19.42 220.18 47.94H174.3C159.73 37.4 140.82 30.89 120.36 30.89C72.93 30.89 34.49 65.61 34.49 108.08C34.49 150.86 72.93 185.58 120.36 185.58C145.78 185.58 168.72 175.66 184.53 159.85H146.09V129.78ZM339.363 52.28C379.663 52.28 412.523 85.14 412.523 125.44H378.113C378.113 101.57 360.753 82.35 339.363 82.35C307.433 82.35 281.393 105.6 281.393 134.12V211.31H247.293V56.62H281.393V58.79C281.393 63.75 280.463 68.4 278.603 72.74L270.853 90.1L274.883 91.96L281.083 78.32C284.493 70.57 291.003 64.06 298.753 60.65C311.153 55.38 324.793 52.28 339.363 52.28ZM509.643 52.28C560.793 52.28 602.023 88.86 602.023 134.12C602.023 179.07 560.793 215.65 509.643 215.65C458.803 215.65 417.573 179.07 417.573 134.12C417.573 88.86 458.803 52.28 509.643 52.28ZM509.643 185.58C541.883 185.58 567.613 162.33 567.613 134.12C567.613 105.6 541.883 82.35 509.643 82.35C477.713 82.35 451.673 105.6 451.673 134.12C451.673 162.33 477.713 185.58 509.643 185.58ZM708.699 52.28C759.849 52.28 801.079 88.86 801.079 134.12C801.079 179.07 768.529 215.65 728.229 215.65C687.929 215.65 655.069 182.79 655.069 142.49H689.479C689.479 166.36 706.839 185.58 728.229 185.58C749.309 185.58 766.669 162.33 766.669 134.12C766.669 105.6 740.939 82.35 708.699 82.35C676.769 82.35 650.729 105.6 650.729 134.12V262.77H616.629V56.62H650.729V58.79C650.729 63.75 649.799 68.4 647.939 72.74L640.189 90.1L644.219 91.96L650.419 78.32C653.829 70.57 660.339 64.06 668.089 60.65C680.489 55.38 694.129 52.28 708.699 52.28ZM866.358 185.58H887.748V215.65H866.358C837.838 215.65 814.898 196.43 814.898 172.56V5.15999H848.998V172.56C848.998 179.69 856.748 185.58 866.358 185.58ZM1069.75 134.12C1069.75 138.46 1069.44 142.8 1068.51 146.83H921.257C927.767 169.15 950.397 185.58 977.367 185.58C994.727 185.58 1009.92 178.76 1020.77 168.22H1061.07C1046.5 196.12 1014.57 215.65 977.367 215.65C926.527 215.65 885.297 179.07 885.297 134.12C885.297 88.86 926.527 52.28 977.367 52.28C1023.56 52.28 1061.69 82.04 1068.51 121.1C1069.44 125.44 1069.75 129.47 1069.75 134.12ZM932.727 121.1H1033.48C1027.28 98.78 1004.34 82.35 977.367 82.35C951.947 82.35 930.557 96.92 922.497 117.07C921.877 119.55 920.637 121.72 919.397 123.58L913.197 132.57L917.227 135.36L923.117 126.06C925.287 122.96 928.697 121.1 932.727 121.1ZM1227.58 5.15999H1261.99V211.31H1227.58V134.12C1227.58 105.6 1201.85 82.35 1169.61 82.35C1137.68 82.35 1111.64 105.6 1111.64 134.12C1111.64 162.33 1129 185.58 1150.39 185.58C1171.78 185.58 1189.14 166.36 1189.14 142.49H1223.24C1223.24 182.79 1190.69 215.65 1150.39 215.65C1110.09 215.65 1077.54 179.07 1077.54 134.12C1077.54 88.86 1118.77 52.28 1169.61 52.28C1184.18 52.28 1198.13 55.38 1210.22 60.65C1218.28 64.06 1224.48 70.57 1228.2 78.32L1234.09 91.96L1238.43 90.1L1230.68 72.74C1228.82 68.4 1227.58 63.75 1227.58 58.79V5.15999Z" fill="white"/>
</svg>
