<svg width="1600" height="426" viewBox="0 0 1600 426" fill="none" xmlns="http://www.w3.org/2000/svg">
<path d="M234.489 426C221.768 426 209.188 422.326 196.75 414.979C184.595 407.914 169.047 396.894 150.107 381.916C135.972 370.613 123.817 361.429 113.64 354.364C103.746 347.582 92.8627 341.789 80.9898 336.985C69.3997 332.181 57.5268 329.779 45.3713 329.779C41.131 329.779 37.8801 329.92 35.6186 330.203L98.7991 36.4537C79.8591 44.0836 65.1594 55.811 54.6999 71.6358C44.5232 87.1781 39.4348 106.253 39.4348 128.86C39.4348 139.315 40.4243 146.663 42.4031 150.901C44.3819 154.858 45.3713 157.118 45.3713 157.684C30.1062 157.684 18.6573 154.575 11.0248 148.358C3.67493 141.859 0 131.262 0 116.567C0 98.4816 7.34986 80.9612 22.0496 64.006C37.032 46.7682 56.1134 32.9214 79.2937 22.4657C102.474 11.7274 125.654 6.35823 148.835 6.35823C152.792 6.35823 158.446 6.64081 165.796 7.20598L100.495 311.552C108.41 313.53 116.467 316.356 124.665 320.03C133.146 323.986 143.322 329.214 155.195 335.713C173.57 345.604 189.259 353.093 202.263 358.179C215.266 363.548 228.835 366.233 242.97 366.233C255.69 366.233 267.563 363.972 278.588 359.451C276.327 380.08 271.238 396.328 263.323 408.197C255.69 420.066 246.079 426 234.489 426Z" fill="white"/>
<path d="M279.82 322.573C256.075 322.573 237.417 315.791 223.848 302.227C210.562 288.663 203.919 267.045 203.919 237.373C203.919 212.223 208.442 183.964 217.488 152.597C226.534 121.23 239.679 94.3841 256.923 72.0597C274.449 49.7353 295.086 38.5731 318.831 38.5731C327.312 38.5731 334.662 39.7035 340.881 41.9642C328.443 49.3114 316.428 64.4298 304.838 87.3194C293.531 110.209 284.343 135.783 277.276 164.042C270.209 192.301 266.675 217.309 266.675 239.069C266.675 254.328 268.654 266.338 272.612 275.099C276.57 283.859 282.789 288.239 291.269 288.239C305.121 288.239 318.831 278.348 332.4 258.567C346.252 238.503 357.559 213.353 366.323 183.116C375.369 152.88 379.892 123.773 379.892 95.797C379.892 78.2766 378.337 64.2886 375.227 53.8328C372.4 43.0945 367.029 35.0408 359.114 29.6716C351.199 24.3025 340.033 21.6179 325.616 21.6179C303.849 21.6179 283.637 26.1393 264.979 35.1821C246.322 43.9423 231.34 56.6587 220.032 73.3314C209.007 89.7214 203.495 108.796 203.495 130.555C203.495 138.185 204.202 143.837 205.615 147.51C207.029 150.902 207.735 152.88 207.735 153.445C193.601 153.445 182.859 150.619 175.509 144.967C168.442 139.315 164.908 130.273 164.908 117.839C164.908 98.3403 172.823 79.6896 188.654 61.8866C204.767 44.0836 225.969 29.6716 252.258 18.6508C278.831 7.62985 306.676 2.1194 335.792 2.1194C371.128 2.1194 396.712 11.7274 412.542 30.9433C428.372 50.1592 436.288 76.7224 436.288 110.633C436.288 140.87 430.634 172.378 419.327 205.158C408.019 237.938 390.492 265.773 366.747 288.663C343.284 311.27 314.308 322.573 279.82 322.573Z" fill="white"/>
<path d="M604.22 327.236C592.913 327.236 583.019 324.834 574.538 320.03C566.34 315.508 562.241 307.455 562.241 295.869C562.241 288.521 564.079 280.326 567.754 271.284C572.842 276.935 577.506 280.892 581.747 283.152C586.27 285.413 591.075 286.543 596.164 286.543C610.298 286.543 620.758 278.631 627.542 262.806C634.609 246.981 638.143 229.461 638.143 210.245C638.143 174.356 624.715 156.412 597.86 156.412C590.227 156.412 583.726 156.836 578.355 157.684L543.584 320.03H482.524L540.192 50.4418L602.948 41.9642L583.019 136.066H585.563C596.305 136.066 606.341 132.675 615.669 125.893C624.998 118.828 632.489 110.068 638.143 99.6119C643.797 88.8736 646.623 78.1353 646.623 67.397C646.623 54.398 641.959 43.5184 632.63 34.7582C623.584 25.998 609.591 21.6179 590.651 21.6179C573.408 21.6179 556.588 25.5741 540.192 33.4866C523.796 41.1164 510.368 52.7025 499.909 68.2448C489.732 83.7871 484.644 102.579 484.644 124.621C484.644 135.077 485.633 142.424 487.612 146.663C489.591 150.619 490.58 152.88 490.58 153.445C475.598 153.445 464.29 150.478 456.658 144.543C449.025 138.326 445.209 128.295 445.209 114.448C445.209 95.2318 452.417 77.005 466.834 59.7672C481.252 42.5294 500.333 28.6826 524.079 18.2269C547.824 7.48856 572.842 2.1194 599.132 2.1194C618.92 2.1194 635.599 5.22786 649.168 11.4448C662.737 17.6617 672.772 25.8567 679.274 36.0299C686.058 46.203 689.451 57.3652 689.451 69.5164C689.451 82.5154 685.776 95.0906 678.426 107.242C671.076 119.393 660.616 129.284 647.047 136.913C664.009 140.022 676.588 147.934 684.786 160.651C692.984 173.085 697.083 187.92 697.083 205.158C697.083 221.266 693.974 238.786 687.754 257.719C681.818 276.653 671.783 293.043 657.648 306.89C643.797 320.454 625.987 327.236 604.22 327.236Z" fill="white"/>
<path d="M815.653 327.66C797.843 327.66 782.154 324.551 768.585 318.334C755.016 312.117 744.557 303.499 737.207 292.478C729.857 281.174 726.182 268.175 726.182 253.481C726.182 241.047 728.726 229.743 733.815 219.57C739.186 209.397 746.253 201.343 755.016 195.409C764.062 189.475 773.956 186.507 784.698 186.507C794.592 186.507 802.932 189.051 809.716 194.137C816.501 198.941 820.741 205.723 822.437 214.484C807.737 214.484 796.006 218.44 787.243 226.352C778.479 233.982 774.098 244.438 774.098 257.719C774.098 269.871 777.773 279.62 785.122 286.967C792.472 294.314 802.225 297.988 814.381 297.988C829.363 297.988 841.66 293.043 851.271 283.152C861.165 272.979 866.112 260.263 866.112 245.003C866.112 231.721 862.437 219.146 855.087 207.278C847.738 195.409 836.713 180.997 822.013 164.042C806.748 146.521 795.158 131.544 787.243 119.11C779.61 106.394 775.794 92.5473 775.794 77.5702C775.794 62.8756 779.893 49.7353 788.091 38.1493C796.289 26.2806 807.596 16.9552 822.013 10.1732C836.43 3.39105 852.685 0 870.777 0C893.674 0 911.908 5.36916 925.477 16.1075C939.328 26.8458 946.254 41.2577 946.254 59.3433C946.254 71.212 943.286 80.8199 937.349 88.1672C931.413 95.5144 923.639 99.1881 914.028 99.1881C903.286 99.1881 894.664 94.808 888.162 86.0478C893.533 82.0915 897.773 76.8637 900.883 70.3642C903.992 63.8647 905.547 57.0826 905.547 50.0179C905.547 40.9751 902.862 33.7692 897.491 28.4C892.12 23.0309 884.77 20.3463 875.441 20.3463C864.133 20.3463 854.805 24.4438 847.455 32.6388C840.388 40.5513 836.854 50.7244 836.854 63.1582C836.854 74.4617 840.105 85.0587 846.607 94.9493C853.109 104.557 863.285 116.991 877.137 132.251C888.445 144.402 897.491 154.858 904.275 163.618C911.342 172.378 917.279 182.551 922.084 194.137C927.173 205.441 929.717 217.733 929.717 231.015C929.717 249.1 924.628 265.491 914.452 280.185C904.558 294.88 890.847 306.466 873.321 314.943C856.077 323.421 836.854 327.66 815.653 327.66Z" fill="white"/>
<path d="M1080.38 39.4209H1075.29C1050.13 39.4209 1030.49 45.7791 1016.35 58.4955C1002.5 70.9294 995.574 93.1124 995.574 125.045C995.574 135.501 996.564 142.848 998.542 147.087C1000.52 151.043 1001.51 153.303 1001.51 153.869C986.245 153.869 974.797 150.76 967.164 144.543C959.814 138.044 956.139 127.447 956.139 112.752C956.139 92.6886 961.086 74.4617 970.98 58.0717C980.874 41.399 996.564 27.9761 1018.05 17.803C1039.81 7.62986 1067.38 2.5433 1100.73 2.5433C1119.39 2.5433 1139.46 4.23882 1160.95 7.62985C1179.04 10.7383 1195.15 12.2926 1209.29 12.2926C1227.38 12.2926 1243.77 9.32539 1258.47 3.39105C1257.91 21.7592 1253.24 35.3234 1244.48 44.0836C1235.72 52.8438 1222.71 57.2239 1205.47 57.2239C1196.42 57.2239 1187.38 56.5174 1178.33 55.1045C1169.29 53.6915 1156.42 51.2896 1139.74 47.8985L1081.23 320.03H1020.17L1080.38 39.4209Z" fill="white"/>
<path d="M1238.73 327.66C1213.01 327.66 1193.5 320.595 1180.22 306.466C1167.21 292.336 1160.71 274.533 1160.71 253.057C1160.71 237.797 1163.82 222.537 1170.04 207.278C1176.54 191.735 1185.73 178.171 1197.6 166.585C1209.47 154.999 1223.33 147.228 1239.16 143.272C1230.39 137.055 1223.89 129.566 1219.65 120.806C1215.41 111.763 1213.29 102.297 1213.29 92.406C1213.29 77.7114 1217.25 63.2995 1225.16 49.1701C1233.36 35.0408 1244.53 23.596 1258.66 14.8358C1273.08 5.79304 1288.91 1.27165 1306.15 1.27165C1323.96 1.27165 1338.52 5.93434 1349.83 15.2597C1361.14 24.5851 1366.79 37.5841 1366.79 54.2567C1366.79 66.6906 1363.68 77.1463 1357.46 85.6239C1351.24 94.1015 1343.89 98.3403 1335.41 98.3403C1327.78 98.3403 1321.14 94.5254 1315.48 86.8955C1320.57 85.2 1324.95 80.5373 1328.63 72.9075C1332.3 65.2776 1334.14 57.6478 1334.14 50.0179C1334.14 41.8229 1331.88 35.8886 1327.35 32.2149C1322.83 28.2587 1317.32 26.2806 1310.82 26.2806C1302.62 26.2806 1295.13 29.2478 1288.34 35.1821C1281.84 40.8338 1276.75 48.3224 1273.08 57.6478C1269.4 66.6906 1267.57 76.1572 1267.57 86.0478C1267.57 99.612 1271.1 111.622 1278.17 122.078C1285.23 132.251 1295.98 139.174 1310.39 142.848C1295.98 145.956 1282.97 153.021 1271.38 164.042C1259.79 175.063 1250.75 187.92 1244.24 202.615C1237.74 217.027 1234.49 230.874 1234.49 244.155C1234.49 256.872 1237.74 267.186 1244.24 275.099C1251.03 283.011 1261.21 286.967 1274.78 286.967C1288.91 286.967 1303.61 283.152 1318.87 275.522C1334.42 267.61 1345.87 257.013 1353.22 243.731L1362.97 247.97C1351.95 272.273 1334.99 291.63 1312.09 306.042C1289.19 320.454 1264.74 327.66 1238.73 327.66Z" fill="white"/>
<path d="M1537.24 327.236C1515.19 327.236 1504.17 317.769 1504.17 298.836C1504.17 292.619 1505.02 285.554 1506.71 277.642C1508.69 269.447 1511.38 258.991 1514.77 246.275C1518.73 232.993 1521.7 221.69 1523.67 212.364C1525.65 203.039 1526.64 194.702 1526.64 187.355C1526.64 168.139 1518.16 158.531 1501.2 158.531C1496.68 158.531 1492.01 159.097 1487.21 160.227L1453.29 320.03H1392.22L1449.89 50.4418L1512.65 41.9642L1491.87 139.881H1495.26C1506.29 139.881 1516.47 136.066 1525.79 128.436C1535.12 120.806 1542.33 111.339 1547.42 100.036C1552.79 88.4498 1555.48 77.1463 1555.48 66.1254C1555.48 53.1264 1551.52 42.5294 1543.6 34.3343C1535.97 25.8567 1524.38 21.6179 1508.83 21.6179C1485.94 21.6179 1465.86 25.7154 1448.62 33.9105C1431.38 42.1055 1417.95 53.9741 1408.34 69.5164C1399.01 85.0587 1394.35 103.427 1394.35 124.621C1394.35 135.077 1395.33 142.424 1397.31 146.663C1399.29 150.619 1400.28 152.88 1400.28 153.445C1385.02 153.445 1373.57 150.336 1365.94 144.119C1358.59 137.62 1354.91 127.023 1354.91 112.328C1354.91 94.2428 1362.26 76.7224 1376.96 59.7672C1391.94 42.5294 1411.02 28.6826 1434.2 18.2269C1457.38 7.48856 1480.56 2.1194 1503.74 2.1194C1524.95 2.1194 1542.76 5.22786 1557.17 11.4448C1571.59 17.6617 1582.33 25.998 1589.4 36.4537C1596.47 46.6269 1600 57.7891 1600 69.9403C1600 83.2219 1595.9 96.5035 1587.7 109.785C1579.51 123.067 1568.34 133.946 1554.2 142.424C1564.95 145.532 1572.44 150.76 1576.68 158.107C1581.2 165.172 1583.46 174.074 1583.46 184.812C1583.46 193.007 1582.47 201.767 1580.49 211.093C1578.52 220.135 1575.69 231.439 1572.01 245.003C1569.75 253.763 1567.63 262.382 1565.65 270.86C1563.67 279.337 1562.69 286.402 1562.69 292.054C1562.69 298.553 1564.1 304.346 1566.93 309.433C1570.04 314.519 1574.13 318.052 1579.22 320.03C1561.98 324.834 1547.99 327.236 1537.24 327.236Z" fill="white"/>
</svg>
