<svg width="2045" height="227" viewBox="0 0 2045 227" fill="none" xmlns="http://www.w3.org/2000/svg">
<path d="M90.249 222V50.88H0.969023V4.99999H234.709V50.88H145.429V222H90.249ZM331.528 222V50.88H242.248V4.99999H475.988V50.88H386.708V222H331.528ZM637.593 222V50.88H548.313V4.99999H782.053V50.88H692.773V222H637.593ZM781.818 222V64.52H830.798L823.978 107.92H829.248C832.141 98 836.585 89.5267 842.578 82.5C848.571 75.2667 856.115 69.79 865.208 66.07C874.508 62.35 885.048 60.49 896.828 60.49C913.155 60.49 927.001 63.59 938.368 69.79C949.735 75.99 958.415 85.1867 964.408 97.38C970.401 109.573 973.398 124.763 973.398 142.95V149.15H923.798V146.98C923.798 137.887 921.938 130.033 918.218 123.42C914.705 116.6 909.435 111.537 902.408 108.23C895.381 104.717 886.908 102.96 876.988 102.96C862.315 102.96 850.948 107.197 842.888 115.67C834.828 123.937 830.798 136.13 830.798 152.25V222H781.818ZM1072.2 226.03C1047.4 226.03 1029.11 221.793 1017.33 213.32C1005.55 204.64 999.663 192.963 999.663 178.29C999.663 164.03 1005.55 152.663 1017.33 144.19C1029.11 135.51 1047.4 131.17 1072.2 131.17C1090.18 131.17 1105.06 132.823 1116.84 136.13C1128.62 139.23 1140.3 143.88 1151.87 150.08V138.61C1151.87 130.55 1149.81 123.523 1145.67 117.53C1141.54 111.33 1135.34 106.473 1127.07 102.96C1119.01 99.4467 1108.89 97.69 1096.69 97.69C1085.95 97.69 1076.85 98.93 1069.41 101.41C1061.97 103.89 1056.19 107.093 1052.05 111.02C1047.92 114.74 1045.13 118.977 1043.68 123.73H995.013C996.46 111.743 1001.01 101.1 1008.65 91.8C1016.3 82.2933 1027.46 74.75 1042.13 69.17C1057.01 63.3833 1075.41 60.49 1097.31 60.49C1120.05 60.49 1139.06 63.7967 1154.35 70.41C1169.65 77.0233 1181.01 86.3233 1188.45 98.31C1195.89 110.297 1199.61 124.35 1199.61 140.47V173.95C1199.61 178.083 1200.54 181.08 1202.4 182.94C1204.26 184.8 1207.05 185.73 1210.77 185.73C1213.46 185.73 1216.35 185.317 1219.45 184.49V222.62C1212.63 224.893 1205.4 226.03 1197.75 226.03C1189.49 226.03 1182.46 224.687 1176.67 222C1170.89 219.52 1166.55 216.007 1163.65 211.46C1160.76 206.707 1159.31 201.333 1159.31 195.34V194.1H1154.04V195.03C1154.04 200.197 1151.05 205.157 1145.05 209.91C1139.06 214.457 1129.86 218.28 1117.46 221.38C1105.27 224.48 1090.18 226.03 1072.2 226.03ZM1090.49 192.86C1103.31 192.86 1114.57 191.723 1124.28 189.45C1134.2 187.177 1143.4 184.077 1151.87 180.15V171.47C1142.37 167.543 1132.86 164.547 1123.35 162.48C1114.05 160.413 1103.1 159.38 1090.49 159.38C1074.79 159.38 1063.94 160.93 1057.94 164.03C1052.16 166.923 1049.26 170.953 1049.26 176.12C1049.26 181.493 1052.16 185.627 1057.94 188.52C1063.94 191.413 1074.79 192.86 1090.49 192.86ZM1288.11 222L1212.78 64.52H1269.51L1311.05 163.41C1315.6 175.81 1317.87 186.04 1317.87 194.1V195.34H1322.83V194.1C1322.83 186.04 1325.1 175.81 1329.65 163.41L1370.88 64.52H1427.61L1352.28 222H1288.11ZM1544.01 226.03C1521.27 226.03 1501.74 222.413 1485.42 215.18C1469.3 207.74 1457.1 197.82 1448.84 185.42C1440.57 172.813 1436.44 158.76 1436.44 143.26C1436.44 127.76 1440.57 113.81 1448.84 101.41C1457.1 88.8033 1469.4 78.8833 1485.73 71.65C1502.05 64.21 1521.69 60.49 1544.63 60.49C1567.57 60.49 1587.1 64.21 1603.22 71.65C1619.54 78.8833 1631.84 88.8033 1640.11 101.41C1648.37 114.017 1652.51 128.173 1652.51 143.88C1652.51 148.22 1652.2 152.767 1651.58 157.52H1475.19V129.93H1616.86L1607.56 149.46V143.26C1607.56 134.167 1605.18 126.107 1600.43 119.08C1595.67 111.847 1588.65 106.267 1579.35 102.34C1570.05 98.2067 1558.47 96.14 1544.63 96.14C1530.57 96.14 1518.9 98.2067 1509.6 102.34C1500.3 106.267 1493.27 111.847 1488.52 119.08C1483.76 126.107 1481.39 134.167 1481.39 143.26C1481.39 152.56 1483.76 160.827 1488.52 168.06C1493.27 175.087 1500.3 180.667 1509.6 184.8C1519.1 188.727 1530.88 190.69 1544.94 190.69C1560.85 190.69 1573.04 188.83 1581.52 185.11C1590.2 181.183 1597.02 176.43 1601.98 170.85H1649.1C1646 179.53 1640.31 188.107 1632.05 196.58C1623.99 204.847 1612.52 211.873 1597.64 217.66C1582.96 223.24 1565.09 226.03 1544.01 226.03ZM1724.21 62.04C1724.21 55.22 1722.76 50.4667 1719.87 47.78C1716.98 44.8867 1711.6 43.44 1703.75 43.44C1699.82 43.44 1696.31 43.8533 1693.21 44.68C1690.11 45.5067 1686.8 46.7467 1683.29 48.4V8.09998C1688.66 5.41333 1694.45 3.55333 1700.65 2.52C1707.06 1.48665 1713.88 0.969982 1721.11 0.969982C1734.13 0.969982 1744.36 2.51999 1751.8 5.62C1759.45 8.51333 1764.92 13.06 1768.23 19.26C1771.54 25.46 1773.19 33.7267 1773.19 44.06V214.87H1724.21V62.04ZM1660.97 222V181.7H1828.68V222H1660.97ZM1943.2 226.03C1907.45 226.03 1881.62 220.76 1865.7 210.22C1849.79 199.473 1841.83 185.11 1841.83 167.13V164.65H1891.43V166.51C1891.43 174.157 1895.36 180.253 1903.21 184.8C1911.07 189.14 1924.4 191.31 1943.2 191.31C1962.63 191.31 1976.06 189.657 1983.5 186.35C1990.94 183.043 1994.66 178.703 1994.66 173.33C1994.66 168.577 1992.29 165.063 1987.53 162.79C1982.78 160.517 1976.79 158.967 1969.55 158.14C1962.32 157.313 1952.09 156.59 1938.86 155.97C1919.23 155.35 1903.01 154.11 1890.19 152.25C1877.38 150.39 1866.32 146.257 1857.02 139.85C1847.93 133.237 1843.38 123.42 1843.38 110.4C1843.38 95.52 1851.03 83.5333 1866.32 74.44C1881.82 65.14 1907.45 60.49 1943.2 60.49C1965.73 60.49 1984.33 63.1767 1999 68.55C2013.68 73.7167 2024.42 80.8467 2031.24 89.94C2038.27 98.8267 2042.09 108.85 2042.71 120.01H1993.11C1992.49 112.57 1988.36 106.577 1980.71 102.03C1973.07 97.4833 1960.56 95.21 1943.2 95.21C1924.4 95.21 1911.27 96.8633 1903.83 100.17C1896.6 103.477 1892.98 107.817 1892.98 113.19C1892.98 117.53 1895.26 120.733 1899.8 122.8C1904.35 124.867 1910.24 126.313 1917.47 127.14C1924.71 127.76 1934.52 128.277 1946.92 128.69C1967.18 129.517 1983.71 130.86 1996.52 132.72C2009.54 134.58 2020.7 138.817 2030 145.43C2039.51 152.043 2044.26 162.067 2044.26 175.5C2044.26 191 2036.51 203.297 2021.01 212.39C2005.72 221.483 1979.78 226.03 1943.2 226.03Z" fill="white"/>
</svg>
