<svg width="400" height="214" viewBox="0 0 400 214" fill="none" xmlns="http://www.w3.org/2000/svg">
<g opacity="0.05">
<path d="M73.3997 245C64.7369 245 57.1277 244.433 50.5721 243.299C44.0164 242.164 38.2802 239.423 33.3635 235.075C28.6809 230.727 26.3396 224.016 26.3396 214.942C26.3396 202.276 31.0222 185.262 40.3874 163.9C49.9867 142.539 62.5127 121.082 77.9653 99.5313C66.2588 100.098 57.0106 101.516 50.2209 103.785C43.4311 106.053 38.9826 109.551 36.8755 114.277C37.812 114.277 38.7485 115.222 39.685 117.112C40.8557 119.003 41.441 120.988 41.441 123.067C41.441 126.47 39.568 129.211 35.8219 131.291C32.0758 133.181 27.3932 134.126 21.7741 134.126C15.2184 134.126 9.95052 132.708 5.97031 129.873C1.9901 127.037 0 122.973 0 117.679C0 111.252 3.04369 105.392 9.13107 100.098C15.4526 94.8052 24.1154 90.6462 35.1195 87.6215C46.1236 84.4078 58.2984 82.8009 71.6438 82.8009C76.5605 82.8009 82.6479 83.0845 89.9059 83.6516C109.105 59.076 129.357 39.0374 150.663 23.5359C172.203 7.84529 192.689 0 212.122 0C223.36 0 232.608 1.3233 239.866 3.96991L184.729 212.674H134.156L161.198 109.74C152.536 106.526 144.575 104.163 137.317 102.65C130.059 101.138 122.333 100.098 114.138 99.5313C100.793 122.784 89.7888 146.603 81.126 170.99C72.6973 195.187 68.483 214.564 68.483 229.12C68.483 236.304 70.1219 241.597 73.3997 245ZM184.729 20.1331C174.661 24.4811 164.125 32.61 153.121 44.5197C142.351 56.2404 131.815 70.5131 121.513 87.338C138.371 89.9846 152.653 93.2928 164.359 97.2627L184.729 20.1331Z" fill="white"/>
<path d="M273.57 214.375C260.224 214.375 249.103 210.689 240.206 203.316C231.309 195.943 226.861 184.412 226.861 168.721C226.861 154.732 230.256 140.081 237.046 124.769C244.069 109.267 254.371 96.223 267.951 85.6366C281.764 74.8611 298.153 69.4734 317.118 69.4734C326.717 69.4734 333.858 70.7967 338.541 73.4433C343.223 76.0899 345.565 79.5872 345.565 83.9352V85.9201L349.428 70.8912H400L374.714 167.303C373.777 170.139 373.309 173.164 373.309 176.377C373.309 180.158 374.363 182.899 376.47 184.601C378.811 186.113 382.557 186.869 387.708 186.869C390.986 186.869 393.561 186.491 395.434 185.735C390.284 196.321 385.367 203.789 380.684 208.137C376.002 212.296 369.212 214.375 360.315 214.375C350.716 214.375 342.872 212.106 336.785 207.569C330.932 202.843 327.303 196.321 325.898 188.003C311.616 205.585 294.173 214.375 273.57 214.375ZM296.397 186.869C302.251 186.869 307.987 184.695 313.606 180.347C319.459 175.81 323.439 169.666 325.547 161.916L342.404 97.8299C342.404 95.3723 341.233 93.0093 338.892 90.7407C336.551 88.2832 332.922 87.0544 328.005 87.0544C318.64 87.0544 310.211 91.4969 302.719 100.382C295.227 109.078 289.374 119.664 285.159 132.141C280.945 144.429 278.838 155.299 278.838 164.751C278.838 174.203 280.477 180.253 283.754 182.899C287.266 185.546 291.481 186.869 296.397 186.869Z" fill="white"/>
</g>
</svg>
