<svg width="400" height="230" viewBox="0 0 400 230" fill="none" xmlns="http://www.w3.org/2000/svg">
<g opacity="0.05">
<path d="M119.62 45.979L57.4969 241.68H0L89.0541 0H125.403L119.62 45.979ZM171.169 241.68L108.881 45.979L102.437 0H139.281L228.666 241.68H171.169ZM168.525 151.714V193.543H43.1227V151.714H168.525Z" fill="white"/>
<path d="M340.686 198.855V121.836C340.686 116.414 339.86 111.766 338.207 107.893C336.555 104.02 333.967 100.977 330.442 98.7635C326.917 96.5504 322.346 95.4438 316.729 95.4438C311.992 95.4438 307.862 96.2737 304.337 97.9336C300.922 99.5935 298.279 101.973 296.406 105.071C294.644 108.17 293.763 111.987 293.763 116.524H242.214C242.214 108.446 244.031 100.921 247.666 93.9499C251.301 86.9783 256.478 80.8367 263.197 75.5251C270.026 70.2134 278.177 66.119 287.65 63.2419C297.122 60.2541 307.752 58.7602 319.537 58.7602C333.526 58.7602 345.973 61.1393 356.877 65.8977C367.892 70.5454 376.594 77.5723 382.982 86.9783C389.371 96.2737 392.565 108.004 392.565 122.168V197.361C392.565 208.206 393.171 216.727 394.383 222.923C395.704 229.01 397.577 234.321 400 238.858V241.68H347.955C345.532 236.479 343.715 230.061 342.503 222.425C341.292 214.679 340.686 206.822 340.686 198.855ZM347.129 132.127L347.46 160.678H321.85C316.123 160.678 311.166 161.397 306.981 162.835C302.905 164.274 299.601 166.266 297.067 168.811C294.534 171.245 292.661 174.123 291.45 177.442C290.348 180.652 289.798 184.193 289.798 188.066C289.798 191.717 290.679 195.037 292.441 198.025C294.204 200.902 296.627 203.171 299.711 204.831C302.795 206.491 306.375 207.32 310.45 207.32C317.169 207.32 322.897 205.993 327.633 203.337C332.48 200.681 336.225 197.472 338.868 193.709C341.512 189.836 342.834 186.24 342.834 182.92L355.225 204.499C353.242 208.925 350.819 213.517 347.955 218.276C345.092 222.923 341.457 227.294 337.051 231.389C332.645 235.373 327.303 238.637 321.024 241.182C314.856 243.727 307.421 245 298.72 245C287.485 245 277.296 242.731 268.154 238.194C259.011 233.547 251.687 227.184 246.179 219.106C240.782 211.028 238.083 201.732 238.083 191.22C238.083 181.813 239.791 173.459 243.205 166.155C246.62 158.852 251.742 152.655 258.571 147.564C265.51 142.474 274.212 138.656 284.676 136.111C295.14 133.455 307.366 132.127 321.355 132.127H347.129Z" fill="white"/>
</g>
</svg>
