<svg width="400" height="230" viewBox="0 0 400 230" fill="none" xmlns="http://www.w3.org/2000/svg">
<g opacity="0.05">
<path d="M139.134 191.246H76.0054L64.0707 241.343H0L69.724 0H146.672L216.71 241.343H150.755L139.134 191.246ZM128.141 142.978L116.835 95.0746L108.041 55.5821H107.413L98.9326 94.709L87.312 142.978H128.141Z" fill="white"/>
<path d="M391.206 200.754C394.765 200.754 397.697 200.266 400 199.291L394.975 238.418C388.065 242.806 380.632 245 372.676 245C360.741 245 350.795 242.562 342.839 237.687C335.092 232.567 329.962 225.132 327.449 215.381C322.843 224.644 315.829 231.958 306.407 237.321C297.194 242.44 285.573 245 271.545 245C255.632 245 243.487 241.221 235.112 233.664C226.946 225.863 222.863 214.771 222.863 200.388C222.863 185.03 227.575 172.597 236.997 163.09C246.419 153.582 262.122 146.269 284.107 141.149L317.399 133.104V126.157C317.399 119.087 315.829 113.602 312.688 109.701C309.547 105.801 305.15 103.851 299.497 103.851C293.216 103.851 288.086 105.801 284.107 109.701C280.129 113.358 277.721 119.818 276.884 129.082L224.748 116.284C227.051 96.7811 234.589 81.6667 247.361 70.9403C260.343 60.2139 278.454 54.8507 301.695 54.8507C354.041 54.8507 380.213 79.107 380.213 127.619V186.127C380.213 195.878 383.878 200.754 391.206 200.754ZM296.984 201.851C302.428 201.851 307.139 200.022 311.118 196.366C315.305 192.465 317.399 187.102 317.399 180.276V163.455L300.125 168.575C289.237 171.744 283.793 178.082 283.793 187.59C283.793 192.221 284.945 195.756 287.248 198.194C289.761 200.632 293.006 201.851 296.984 201.851Z" fill="white"/>
</g>
</svg>
