<svg width="925" height="800" viewBox="0 0 925 800" fill="none" xmlns="http://www.w3.org/2000/svg">
<g opacity="0.1">
<path d="M117.417 699.164C108.858 693.46 99.3059 692.427 89.383 692.96C89.2298 692.928 89.0845 692.903 88.9313 692.887C88.9958 692.944 89.0523 693 89.1168 693.049C83.6794 694.896 77.9677 696.098 73.2242 699.615C63.9387 706.497 57.4444 715.129 55.831 726.899C55.6696 728.069 55.2179 729.198 54.8952 730.344C54.8952 730.344 54.8871 730.36 54.8871 730.368C54.8548 730.368 54.8145 730.384 54.7822 730.392C54.8226 730.408 54.8629 730.433 54.9032 730.465C55.1291 733.627 55.1291 736.822 55.6374 739.936C57.8398 753.271 65.7457 762.573 76.9674 769.438C82.4693 771.035 87.7776 773.262 93.6345 773.561C100.952 773.94 107.623 771.681 114.303 769.261C115.215 768.704 116.134 768.163 117.022 767.583C142.208 751.246 142.393 715.79 117.417 699.164ZM64.463 726.915C64.5518 717.565 76.8867 703.1 87.576 702.633C84.1877 714.798 75.8541 721.978 64.463 726.915ZM106.817 763.452C98.7734 765.977 90.8594 766.026 82.6952 762.718C86.4949 756.732 89.8267 750.665 92.1421 744.115C93.1666 741.235 93.9572 738.282 94.8527 735.354C95.2883 733.942 96.0386 733.071 97.7166 733.2C99.4027 733.329 99.4027 734.426 99.6447 735.676C101.242 744.091 103.824 752.19 108.019 759.693C109.059 761.572 109.325 762.67 106.817 763.452Z" fill="#FEFEFE"/>
<path d="M25.5624 0.701859C25.5462 0.75833 25.522 0.806734 25.4978 0.863205C25.4414 0.814801 25.3929 0.75833 25.3445 0.701859H25.5624Z" fill="#FEFEFE"/>
<path d="M60.0502 0.847068C60.018 0.790596 59.9938 0.734125 59.9857 0.669586H60.2116C60.1632 0.734125 60.1067 0.790596 60.0502 0.847068Z" fill="#FEFEFE"/>
<path d="M103.299 334.94C103.13 335.044 102.96 335.157 102.791 335.262C99.3543 336.303 95.966 337.57 92.4728 338.336C82.187 340.595 72.5627 338.578 63.4788 333.455C62.4543 332.874 61.5991 331.906 60.268 331.979C60.147 331.85 60.026 331.721 59.905 331.6C59.9453 331.576 59.9937 331.551 60.0421 331.535C60.1147 331.519 60.1874 331.503 60.2519 331.487C61.7282 331.196 62.9464 331.922 64.1888 332.592C74.9586 338.441 86.0996 339.998 97.7892 335.593C99.3865 334.988 101.032 334.262 102.807 334.754C102.952 334.794 103.089 334.835 103.235 334.891C103.259 334.907 103.275 334.923 103.299 334.94Z" fill="#FEFEFE"/>
<path d="M384.373 731.852C388.165 721.099 390.884 710.151 390.561 698.615C390.149 684.255 386.285 670.936 378.944 658.593C378.266 657.464 377.129 656.504 377.226 655.027C377.322 655.043 377.427 655.059 377.532 655.076C377.451 654.947 377.355 654.826 377.266 654.696C377.258 654.696 377.258 654.696 377.258 654.696C376.096 654.164 375.515 653.091 374.781 652.139C358.283 630.72 336.582 619.765 309.468 619.612C306.548 619.587 303.579 620.176 300.699 619.216C299.029 620.451 297.02 620.733 295.068 621.152C262.613 628.074 241.17 647.476 232.409 679.286C224.027 709.691 232.215 736.459 254.57 758.644C265.267 769.261 278.465 775.666 293.035 779.288C295.019 779.53 297.004 779.748 298.989 780.022C320.189 782.959 339.511 778.207 356.96 765.84C369.158 757.192 377.944 745.769 384.212 732.312C384.414 732.127 384.607 731.933 384.785 731.731H384.639C384.551 731.772 384.454 731.812 384.373 731.861V731.852ZM277.691 764.695C257.393 756.167 236.797 730.182 237.411 699.083C238.024 668.217 257.894 642.595 282.571 633.415C264.775 651.728 258.547 673.905 257.966 698.058C257.393 722.059 262.363 744.558 277.691 764.695ZM382.534 698.671C382.469 709.466 380.686 718.178 377.516 726.657C376.612 729.061 375.862 729.924 372.99 728.755C362.244 724.374 356.622 716.291 355.105 705.125C353.79 695.428 353.346 685.683 355.936 676.107C357.703 669.589 361.478 664.377 366.924 660.271C369.094 658.641 369.989 659.214 371.207 661.215C378.549 673.267 382.381 686.296 382.534 698.671Z" fill="#FEFEFE"/>
<path d="M428.558 0.669589C428.51 0.734127 428.453 0.790599 428.397 0.84707C428.364 0.790599 428.34 0.734127 428.332 0.669589C428.276 0.467905 428.316 0.24202 428.445 0C428.469 0.225885 428.51 0.451771 428.558 0.669589Z" fill="#FEFEFE"/>
<path d="M304.111 176.352C304.789 176.328 305.458 176.312 306.128 176.303C305.7 176.521 305.265 176.731 304.837 176.941C304.813 176.957 304.781 176.965 304.757 176.981C295.382 178.635 286 180.2 277.126 183.919C259.555 191.285 246.68 203.676 237.854 220.391C231.271 232.88 228.036 246.271 228.867 260.349C230.206 282.905 238.951 302.057 256.256 317.038C265.977 325.452 277.045 331.188 289.445 334.447C291.107 334.883 292.623 335.601 294.075 336.472C294.334 336.626 294.592 336.779 294.842 336.94C294.358 337.021 293.866 337.126 293.39 337.182H293.382C291.913 336.545 290.518 335.714 288.993 335.303C250.367 325.001 225.874 291.457 227.891 251.58C229.771 214.543 260.12 181.902 296.939 177.312C299.335 177.021 301.723 176.675 304.111 176.352Z" fill="#FEFEFE"/>
<path d="M393.909 0.701858C393.893 0.750262 393.876 0.806733 393.844 0.855137C393.788 0.806733 393.747 0.758329 393.699 0.701858C393.796 0.475973 393.828 0.24202 393.788 0C393.933 0.250087 393.973 0.48404 393.909 0.701858Z" fill="#FEFEFE"/>
<path d="M762.271 0.669586C762.271 0.669586 762.271 0.693788 762.263 0.701856H762.045C762.118 0.693788 762.199 0.677654 762.271 0.669586Z" fill="#FEFEFE"/>
<path d="M797.679 0.718164H797.493C797.493 0.718164 797.477 0.66158 797.477 0.637329C797.542 0.66158 797.615 0.68583 797.679 0.718164Z" fill="#FEFEFE"/>
<path d="M958.493 325.138C957.469 325.977 956.549 326.945 955.589 327.856C955.299 327.994 955.008 328.131 954.718 328.26C954.718 328.203 954.742 328.155 954.75 328.098C954.798 327.913 954.863 327.735 954.935 327.566C955.589 325.936 957.057 325.001 958.34 323.895C979.904 305.421 977.653 274.289 953.508 259.429C943.706 253.403 933.041 252.742 922.045 255.815C920.448 256.259 918.745 257.445 917.043 256.42C916.979 256.388 916.922 256.348 916.858 256.299C916.93 256.259 917.011 256.21 917.092 256.17C925.716 253.282 934.493 251.709 943.472 254.178C959.163 258.477 969.449 268.602 973.039 284.382C976.75 300.702 971.506 314.457 958.493 325.138Z" fill="#FEFEFE"/>
<path d="M975.733 697.792C973.587 697.623 973.95 695.735 973.627 694.484C967.859 672.372 947.4 660.166 925.159 665.563C923.215 666.031 921.303 667.322 919.165 666.321C919.108 666.297 919.052 666.273 918.995 666.241C918.979 666.217 918.971 666.192 918.955 666.168C919.068 666.192 919.189 666.217 919.31 666.249C933.468 661.166 946.989 661.868 959.348 671.105C967.593 677.261 973.055 685.344 974.934 695.614C975.08 696.396 974.975 697.244 975.733 697.792Z" fill="#FEFEFE"/>
<path d="M762.045 0.701868H762.263C762.263 0.701868 762.271 0.677666 762.271 0.669598C762.199 0.677666 762.118 0.6938 762.045 0.701868ZM797.477 0.637329C797.477 0.637329 797.485 0.6938 797.493 0.718002H797.679C797.614 0.685733 797.542 0.661531 797.477 0.637329ZM954.935 327.566C953.507 327.122 952.305 328.066 951.087 328.639C945.295 331.382 939.277 332.6 932.815 332.6C911.396 332.592 889.961 311.883 895.173 285.43C897.407 274.08 904.2 265.948 913.445 259.51C914.728 258.615 916.664 258.332 917.043 256.42C917.067 256.34 917.083 256.259 917.092 256.17C917.011 256.21 916.93 256.259 916.858 256.299C898.214 266.738 890.01 283.615 894.374 302.807C898.271 319.975 915.188 333.6 932.621 333.721C940.64 333.778 947.731 331.519 954.718 328.26C955.008 328.131 955.298 327.994 955.589 327.856C955.363 327.727 955.145 327.631 954.935 327.566Z" fill="#4E5255"/>
<path d="M954.717 328.26C947.731 331.519 940.64 333.778 932.621 333.721C915.188 333.6 898.27 319.975 894.374 302.807C890.009 283.615 898.214 266.738 916.858 256.299C916.704 256.194 916.551 256.065 916.398 255.92C915.397 253.742 915.744 251.427 915.744 249.168C915.72 202.216 915.962 155.256 915.623 108.304C915.462 87.1514 910.339 67.0234 898.456 49.2027C886.444 31.1883 869.68 19.1519 849.35 11.8751C833.812 6.30866 817.75 3.47702 801.398 1.96843C800.196 1.85549 798.978 1.87162 797.889 1.21817C797.687 1.07296 797.55 0.903541 797.493 0.717993C797.485 0.693791 797.477 0.661521 797.477 0.637319C796.122 0.161347 794.718 0.500175 793.347 0.419501C789.127 0.169414 784.876 0.895474 780.673 0H779.067C778.349 0.419501 777.599 0.492107 776.841 0.467905C776.147 0.451771 775.453 0.36303 774.768 0.395299C770.605 0.60505 766.426 0.0887406 762.271 0.669589C762.271 0.677656 762.271 0.693791 762.263 0.701858C762.215 0.863205 762.102 1.01648 761.932 1.15363C756.205 2.68642 750.267 2.59768 744.434 3.33988C724.565 5.88109 705.348 10.7618 687.285 19.4503C670.046 27.7436 655.105 38.9007 645.698 56.1406C636.372 73.2353 635.09 90.7898 644.674 108.062C651.733 120.768 662.801 128.327 677.685 129.457C685.624 130.062 693.457 129.618 701.177 127.359C715.674 123.116 724.242 113.144 728.405 99.1314C730.688 91.4594 731.139 83.5372 729.397 75.6232C727.558 67.2977 723.056 60.626 716.642 55.1564C715.82 54.4626 714.86 53.9463 714.069 53.2202C711.165 50.558 711.496 47.6537 715.021 45.8225C718.264 44.1445 721.806 43.2248 725.355 42.5149C743.612 38.8926 761.844 38.2069 779.963 43.3377C795.21 47.6457 805.617 57.3829 811.748 71.888C816.895 84.0455 818.912 96.808 819.719 109.901C820.566 123.583 820.461 137.258 820.453 150.94C820.453 156.829 819.888 157.394 814.007 157.41C799.639 157.442 785.255 157.095 770.895 157.49C747.807 158.136 724.774 159.701 702.323 165.776C684.083 170.713 667.069 178.159 652.999 191.115C642.826 200.489 635.469 211.88 631.75 225.224C623.973 253.113 625.74 280.493 637.615 306.97C645.392 324.299 658.396 336.384 676.08 343.426C689.318 348.702 703.162 350.76 717.296 351.97C728.768 352.954 740.11 352.462 751.397 350.937C768.79 348.59 784.4 342.184 797.663 330.156C807.553 321.193 814.257 310.237 820.106 298.54C820.646 297.467 821.066 296.321 821.873 295.394C822.849 294.264 824.083 293.941 825.503 294.28C826.907 294.627 827.431 295.724 827.536 296.983C827.77 299.79 828.246 302.573 828.552 305.373C829.359 312.932 831.521 320.104 835.079 326.824C841.92 339.707 852.988 347.137 866.969 349.816C894.237 355.051 920.899 351.703 947.021 342.902C947.78 342.644 948.49 342.216 949.248 341.966C953.282 340.659 955.04 338.005 954.524 333.713C954.314 331.93 954.354 330.067 954.717 328.26ZM819.106 228.79C818.904 237.922 819.799 248.7 817.968 259.349C814.58 279.025 802.745 290.852 783.045 293.998C770.064 296.071 757.14 296.144 744.652 291.029C731.204 285.511 724.355 275.306 723.403 261.051C722.838 252.475 722.459 243.819 723.79 235.316C726.912 215.349 738.997 202.877 758.923 198.206C767.346 196.23 775.873 195.528 784.481 195.52C794.823 195.512 805.165 195.601 815.5 195.455C818.242 195.415 819.227 196.109 819.17 199.005C819.001 208.403 819.106 217.802 819.106 228.79Z" fill="white"/>
<path d="M974.934 695.614C973.055 685.344 967.593 677.261 959.348 671.105C946.989 661.868 933.468 661.166 919.31 666.249C919.189 666.217 919.068 666.192 918.955 666.168C918.971 666.192 918.979 666.217 918.996 666.241C919.052 666.273 919.108 666.297 919.165 666.321C902.207 674.921 894.059 688.628 895.132 707.723C896.036 723.648 910.355 739.565 926.676 742.937C934.662 744.583 942.391 743.744 950.031 741.348C949.99 741.469 949.95 741.598 949.91 741.735C949.901 741.775 949.893 741.807 949.885 741.848C950.168 741.638 950.442 741.396 950.708 741.138C951.846 740.46 952.959 739.734 954.129 739.097C962.89 734.337 969.287 727.399 973.022 718.154C974.2 715.242 974.846 712.104 975.733 709.07V697.792C974.975 697.244 975.08 696.396 974.934 695.614ZM940.963 717.977C934.783 717.839 928.604 717.823 922.432 717.993C919.907 718.057 919.205 717.218 919.262 714.774C919.415 708.602 919.31 702.423 919.31 696.243C919.31 690.064 919.415 684.433 919.262 678.527C919.205 676.349 919.818 675.01 921.827 674.139C941.6 665.555 962.825 676.898 966.843 696.816C969.537 710.159 965.068 721.074 954.282 729.392C953.459 730.021 952.66 731.126 951.515 730.562C950.329 729.973 950.958 728.642 950.886 727.641C950.636 724.584 952.16 720.655 950.248 718.695C948.151 716.533 944.133 718.049 940.963 717.977Z" fill="#F38392"/>
<path d="M393.788 0C393.933 0.250087 393.973 0.48404 393.909 0.701858C393.893 0.750262 393.876 0.806733 393.844 0.855137C393.788 0.806733 393.747 0.758329 393.699 0.701858C393.796 0.475973 393.828 0.24202 393.788 0Z" fill="#959396"/>
<path d="M428.558 0.669589C428.51 0.734127 428.453 0.790599 428.397 0.84707C428.364 0.790599 428.34 0.734127 428.332 0.669589C428.276 0.467905 428.316 0.24202 428.445 0C428.469 0.225885 428.51 0.451771 428.558 0.669589Z" fill="#959396"/>
<path d="M25.5624 0.701859C25.5462 0.75833 25.522 0.806734 25.4978 0.863205C25.4414 0.814801 25.3929 0.75833 25.3445 0.701859H25.5624Z" fill="#959396"/>
<path d="M60.2116 0.669586C60.1632 0.734125 60.1067 0.790596 60.0502 0.847068C60.018 0.790596 59.9938 0.734125 59.9857 0.669586H60.2116Z" fill="#959396"/>
<path d="M797.679 0.718164H797.493C797.493 0.718164 797.477 0.66158 797.477 0.637329C797.542 0.66158 797.615 0.68583 797.679 0.718164Z" fill="#969497"/>
<path d="M762.271 0.669586C762.271 0.669586 762.271 0.693788 762.263 0.701856H762.045C762.118 0.693788 762.199 0.677654 762.271 0.669586Z" fill="#969497"/>
<path d="M918.955 666.168C918.955 666.168 918.979 666.217 918.995 666.241C919.052 666.273 919.108 666.297 919.165 666.321C919.213 666.297 919.262 666.273 919.31 666.249C919.189 666.217 919.068 666.192 918.955 666.168ZM950.03 741.348C949.99 741.469 949.95 741.598 949.909 741.735C949.901 741.775 949.893 741.808 949.885 741.848C950.168 741.638 950.442 741.396 950.708 741.138C950.482 741.211 950.256 741.283 950.03 741.348Z" fill="#4E5255"/>
<path d="M926.675 742.937C910.355 739.565 896.036 723.648 895.132 707.723C894.059 688.628 902.207 674.921 919.165 666.322C919.108 666.297 919.052 666.273 918.995 666.241C918.979 666.217 918.971 666.192 918.955 666.168C917.826 664.2 918.229 662.03 918.229 659.94C918.197 628.792 918.431 597.644 918.124 566.496C917.947 548.264 915.18 530.379 907.871 513.462C899.876 494.955 887.444 480.24 870.325 469.43C851.149 457.321 829.916 451.835 807.69 448.971C796.606 447.543 785.441 446.914 774.388 446.963C745.774 447.1 717.457 450.036 691.513 463.638C671.691 474.029 655.258 488.453 642.092 506.588C640.124 509.299 640.196 510.937 642.859 513.26C659.356 527.62 675.62 542.254 692.061 556.67C694.328 558.655 695.433 558.316 697.055 556.089C702.96 548.006 710.205 541.237 718.046 535.066C727.767 527.418 738.707 522.723 750.977 520.964C762.344 519.327 773.654 519.109 785.005 521.166C806.182 525.006 820.042 538.882 823.591 560.083C825.406 570.885 824.22 581.784 824.414 592.643C824.462 595.047 823.204 596.362 820.735 596.483C819.259 596.555 817.783 596.563 816.306 596.563C797.501 596.563 778.688 596.103 759.899 596.676C734.689 597.443 709.898 601.081 686.406 610.98C673.426 616.449 661.373 623.508 651.321 633.439C639.858 644.766 632.589 658.593 629.168 674.308C624.788 694.452 624.715 714.669 630.863 734.418C641.116 767.357 663.527 787.461 697.128 795.294C706.332 797.432 715.682 798.731 725.032 798.803C748.638 798.973 771.662 795.988 792.459 783.483C809.723 773.101 820.881 758.047 826.826 738.96C827.23 737.685 827.488 736.354 828.036 735.128C828.827 733.369 830.085 732.32 832.11 732.474C834.143 732.635 834.708 734.144 835.071 735.773C836.459 741.945 838.29 747.971 840.718 753.82C850.165 776.594 871.551 790.93 896.237 790.962C912.219 790.978 928.2 790.97 944.182 790.962C949.563 790.954 949.635 790.889 949.635 785.621C949.651 772.73 949.635 759.846 949.651 746.955C949.651 745.252 949.538 743.534 949.885 741.848C949.893 741.808 949.901 741.775 949.909 741.735C949.95 741.598 949.99 741.469 950.03 741.348C942.391 743.744 934.662 744.583 926.675 742.937ZM823.51 692.468C823.212 707.505 816.161 718.582 802.664 725.165C783.529 734.499 763.57 735.943 743.2 729.965C729.639 725.996 722.814 716.371 721.701 702.512C721.063 694.614 720.563 686.643 722.193 678.842C725.363 663.675 736.311 656.415 750.227 652.76C764.135 649.106 778.422 649.606 792.645 649.614C801.906 649.614 811.167 649.671 820.437 649.574C822.712 649.55 823.825 649.953 823.785 652.607C823.615 665.894 823.777 679.181 823.51 692.468Z" fill="white"/>
<path d="M216.637 788.953C216.645 791.349 216.129 792.148 213.563 792.132C196.098 792.003 178.632 792.293 161.182 791.978C142.16 791.639 126.404 784.105 114.303 769.261C115.215 768.704 116.134 768.163 117.022 767.583C142.208 751.246 142.393 715.79 117.417 699.164C108.858 693.46 99.3058 692.427 89.383 692.96C89.4556 679.665 89.4395 666.378 89.6492 653.091C89.6896 650.179 88.6892 649.533 85.9625 649.558C71.9979 649.679 58.0253 649.525 44.0607 649.646C34.5251 649.735 24.9734 650.259 15.7363 652.793C1.85244 656.608 -9.09492 663.901 -12.0879 679.116C-13.6772 687.184 -13.2496 695.453 -12.4187 703.601C-11.1602 715.992 -5.11774 725.011 6.9752 729.271C22.771 734.845 38.7444 734.507 54.7742 730.392H54.7822C54.7822 730.392 54.8629 730.433 54.9032 730.465C55.1291 733.627 55.1291 736.822 55.6374 739.936C57.8398 753.271 65.7457 762.573 76.9674 769.438C64.7615 783.411 48.9899 791.381 31.2901 795.512C1.90084 802.369 -27.4239 802.353 -55.5466 790.308C-85.6217 777.425 -102.192 753.481 -107.428 721.647C-110.832 700.955 -109.59 680.472 -101.99 660.666C-93.81 639.36 -78.2642 624.984 -58.4347 614.787C-35.6445 603.074 -11.136 597.919 14.2519 596.257C38.0102 594.7 61.7847 595.716 85.543 595.555C89.0038 595.531 89.7702 594.554 89.6573 591.287C89.3104 581.235 90.101 571.143 88.4149 561.148C84.5668 538.414 71.2396 525.409 48.3284 521.965C33.0972 519.673 18.0436 520.408 3.42558 525.385C-12.5316 530.806 -24.0679 542.254 -34.6764 554.71C-39.541 560.422 -39.3958 560.623 -45.1398 555.557C-61.46 541.181 -77.6834 526.7 -94.0843 512.421C-96.3754 510.428 -95.4073 509.331 -94.1569 507.597C-71.9314 476.804 -42.8002 456.587 -5.04513 449.915C31.0965 443.526 67.1494 444.042 102.678 453.675C129.357 460.911 151.945 474.658 167.096 498.618C177.486 515.051 182.383 533.291 184.215 552.491C185.368 564.552 185.005 576.637 185.013 588.714C185.054 630.47 185.054 672.235 184.965 713.991C184.957 716.968 185.465 718.146 188.813 718.025C196.864 717.751 204.931 718.041 212.983 717.88C215.621 717.823 216.686 718.251 216.661 721.276C216.524 743.832 216.556 766.389 216.637 788.953Z" fill="white"/>
<path d="M76.9674 769.438C65.7457 762.573 57.8398 753.271 55.6374 739.936C55.1291 736.822 55.1291 733.627 54.9033 730.465C56.2828 731.296 56.2263 732.933 56.2666 734.466C56.6297 748.277 63.3578 758.483 74.2245 766.389C75.3297 767.195 77.0642 767.518 76.9674 769.438Z" fill="#4E5255"/>
<path d="M117.022 767.583C116.134 768.163 115.215 768.704 114.303 769.261C114.376 767.228 116.239 766.865 117.474 766.01C134.35 754.272 139.973 732.78 130.155 714.782C122.975 701.6 111.6 694.38 96.2564 693.968C93.8685 693.912 91.2466 694.767 89.1168 693.049C89.0523 693 88.9958 692.944 88.9313 692.887C89.0846 692.903 89.2298 692.928 89.3831 692.96C99.3059 692.427 108.858 693.46 117.417 699.164C142.394 715.79 142.208 751.246 117.022 767.583Z" fill="#4E5255"/>
<path d="M217.702 335.456C217.71 338.215 216.524 339.982 214.072 341.135C210.296 342.918 206.416 344.419 202.39 345.508C182.69 350.848 162.667 353.365 142.272 351.631C133.011 350.848 124.032 348.823 115.618 344.435C110.866 341.966 107.454 338.029 103.299 334.94C117.119 326.122 125.42 314.198 124.597 296.999C123.839 281.227 115.715 270.296 102.404 262.689C95.9175 258.978 88.7054 258.639 81.4932 258.308C83.155 238.22 81.9449 218.1 82.3644 197.997C82.4209 195.197 80.6945 195.504 78.9278 195.504C68.1982 195.528 57.4687 195.52 46.731 195.544C39.7447 195.568 32.7987 196.004 25.9334 197.392C6.9026 201.24 -7.42498 210.678 -12.0314 230.693C-14.7501 242.552 -14.4839 254.67 -12.4913 266.658C-10.6035 277.992 -3.89149 285.689 6.45084 290.392C18.4873 295.87 31.0965 295.902 43.8752 294.369C43.6654 302.299 44.3512 310.012 48.0218 317.304C50.9099 323.032 55.6374 327.098 59.905 331.6C58.5739 332.173 57.4848 333.116 56.3715 334.004C45.9404 342.265 34.0815 347.387 21.0608 349.808C7.82228 352.268 -5.46462 353.083 -18.9774 351.97C-32.1756 350.889 -45.0994 349.033 -57.6038 344.604C-76.675 337.852 -90.9058 325.444 -99.2312 307.091C-110.162 282.994 -112.308 257.671 -106.839 231.871C-103.467 216.003 -95.8107 202.224 -83.7823 191.147C-69.7935 178.272 -52.9167 170.874 -34.8378 165.905C-12.2735 159.701 10.904 158.152 34.1379 157.499C48.4978 157.087 62.8818 157.442 77.2578 157.41C83.2034 157.394 83.7843 156.861 83.752 151.004C83.6875 138.395 83.7359 125.794 83.1147 113.177C82.5903 102.52 81.5819 91.9999 78.5889 81.7947C74.9344 69.3307 69.2066 58.0848 58.1544 50.3321C51.8699 45.9273 44.7707 43.6443 37.4375 41.7485C26.9741 39.0378 16.3333 40.0624 5.75704 40.0624C-3.03635 40.0624 -11.5555 42.1034 -19.8406 45.0077C-21.8494 45.7095 -24.0437 46.4598 -24.4713 48.9929C-24.9311 51.7439 -22.9062 53.0105 -21.0749 54.4384C-13.5642 60.263 -8.83676 67.7414 -7.09422 77.2044C-5.32748 86.8045 -6.77153 95.9609 -10.3534 104.811C-13.5078 112.604 -18.7757 118.864 -26.0041 123.229C-33.6761 127.867 -42.2033 129.085 -51.0612 129.674C-67.7364 130.771 -81.0878 124.665 -90.212 111.111C-101.781 93.9199 -100.958 75.5264 -91.7851 57.5604C-82.6045 39.5703 -67.2604 27.9614 -49.4397 19.4423C-31.3446 10.8022 -12.1444 5.88109 7.7174 3.33988C13.5582 2.59769 19.5038 2.71063 25.2316 1.1617C25.3445 1.06489 25.4333 0.968087 25.4978 0.863211C26.6676 2.08138 28.2568 2.05718 29.7735 2.07331C38.4459 2.14592 47.1263 2.15398 55.7987 2.07331C57.3073 2.05718 58.8966 2.08945 60.0502 0.847076C60.1228 0.984221 60.2358 1.1133 60.3971 1.22624C61.4862 1.8797 62.7044 1.87163 63.9064 1.96844C80.8397 3.33988 97.4504 6.27639 113.44 12.1978C133.116 19.4746 149.412 31.1964 161.279 48.7106C173.509 66.7733 178.753 87.1111 178.882 108.522C179.253 171.342 179.011 234.171 179.019 296.991C179.027 303.582 179.568 304.114 186.118 304.139C195.251 304.171 204.383 304.187 213.515 304.122C216.331 304.106 217.734 305.066 217.718 308.067C217.662 317.2 217.686 326.324 217.702 335.456Z" fill="white"/>
<path d="M60.268 331.979C60.147 331.85 60.026 331.721 59.905 331.6C55.6374 327.098 50.9099 323.032 48.0218 317.304C44.3512 310.012 43.6655 302.299 43.8752 294.369C43.8429 294.191 43.8187 294.006 43.7945 293.828C43.8752 293.893 43.9478 293.957 44.0204 294.022C45.4241 295.313 45.0288 297.152 45.0046 298.782C44.8755 309.866 48.7721 319.192 56.8152 326.848C58.2028 328.171 60.0986 329.284 60.2519 331.487C60.2761 331.648 60.2761 331.809 60.268 331.979Z" fill="#4E5255"/>
<path d="M25.5624 0.701859C25.5462 0.75833 25.522 0.806734 25.4978 0.863205C25.4414 0.814801 25.3929 0.75833 25.3445 0.701859H25.5624Z" fill="#4E5255"/>
<path d="M59.9857 0.669586H60.2116C60.1632 0.734125 60.1067 0.790596 60.0502 0.847068C60.018 0.790596 59.9938 0.734125 59.9857 0.669586Z" fill="#4E5255"/>
<path d="M103.299 334.94C103.13 335.044 102.96 335.157 102.791 335.262C102.783 335.077 102.783 334.915 102.807 334.754C103.001 333.1 104.703 332.778 105.784 331.971C114.424 325.525 120.813 317.627 122.967 306.72C128.034 281.058 107.18 259.938 86.5514 259.671C84.7443 259.647 82.6791 260.026 81.4932 258.308C88.7054 258.639 95.9176 258.978 102.404 262.689C115.715 270.296 123.839 281.227 124.597 296.999C125.42 314.198 117.119 326.122 103.299 334.94Z" fill="#4E5255"/>
<path d="M583.911 789.227C583.919 791.583 583.128 792.124 580.918 792.107C562.653 792.011 544.381 792.293 526.124 791.938C501.713 791.462 480.278 775.206 471.21 750.916C469.475 746.269 468.072 741.533 467.071 736.661C466.765 735.152 467.217 733.03 464.482 732.917C461.747 732.796 461.997 734.934 461.594 736.419C455.503 758.604 442.748 775.642 422.338 786.509C406.954 794.705 390.343 798.594 372.982 799.465C351.321 800.554 330.088 798.86 310.008 789.768C303.91 787.009 297.948 783.975 293.035 779.28C295.019 779.522 297.004 779.74 298.989 780.014C320.189 782.951 339.511 778.199 356.96 765.832C369.158 757.184 377.944 745.761 384.212 732.304C384.414 732.119 384.607 731.925 384.785 731.723C390.892 731.602 396.982 732.28 403.106 732.086C414.569 731.739 425.468 729.101 435.617 723.825C448.291 717.242 454.866 706.481 455.366 692.355C455.817 679.883 455.438 667.386 455.495 654.898C455.503 652.171 454.753 650.566 451.647 650.622C431.801 650.953 411.907 649.654 392.11 652.188C387.431 652.785 382.929 654.164 378.339 655.116C378.056 655.124 377.79 655.108 377.532 655.076C377.451 654.947 377.355 654.826 377.266 654.696C377.258 654.696 377.258 654.696 377.258 654.696C376.096 654.164 375.515 653.091 374.781 652.139C358.283 630.72 336.582 619.765 309.468 619.612C306.548 619.587 303.579 620.176 300.699 619.216C320.577 607.357 342.27 600.984 365.068 597.886C393.683 593.998 422.451 595.942 451.155 595.482C456.665 595.393 456.705 595.466 456.656 590.021C456.552 578.904 457.479 567.714 454.696 556.775C449.331 535.623 436.658 524.724 413.028 521.61C397.821 519.609 382.711 520.617 368.255 526.224C353.814 531.831 343.093 542.375 333.194 553.806C327.434 560.462 327.636 560.583 320.907 554.621C305.233 540.729 289.574 526.829 273.794 513.058C271.543 511.098 271.237 509.839 273.068 507.322C296.52 475.118 327.402 454.877 367.101 448.987C401.702 443.849 436.165 444.413 470.064 453.739C494.444 460.451 515.548 472.625 530.731 493.527C541.517 508.371 547.358 525.183 550.141 543.182C551.988 555.154 552.238 567.23 552.238 579.307C552.254 624.154 552.287 668.992 552.166 713.838C552.166 717.162 552.916 718.146 556.328 718.033C564.509 717.759 572.705 718.009 580.902 717.904C583.088 717.872 583.919 718.38 583.911 720.76C583.83 743.59 583.83 766.413 583.911 789.235V789.227Z" fill="white"/>
<path d="M377.532 655.076C377.427 655.059 377.322 655.043 377.225 655.027C374.612 654.527 373.458 652.066 371.933 650.211C364.858 641.627 356.613 634.504 346.626 629.47C334.291 623.266 321.279 620.192 307.435 620.644C305.16 620.717 302.538 621.54 300.699 619.208C303.579 620.168 306.548 619.579 309.468 619.603C336.582 619.757 358.283 630.712 374.781 652.131C375.515 653.083 376.096 654.156 377.258 654.688C377.258 654.688 377.258 654.688 377.266 654.688C377.355 654.817 377.451 654.938 377.532 655.068V655.076Z" fill="#4E5255"/>
<path d="M384.785 731.723C384.607 731.925 384.414 732.119 384.212 732.304C377.944 745.761 369.158 757.184 356.96 765.832C339.511 778.199 320.189 782.951 298.989 780.014C297.004 779.74 295.019 779.522 293.035 779.28C294.931 777.925 296.956 778.869 298.851 779.103C315.373 781.16 331.137 778.901 346.037 771.261C361.438 763.363 372.918 751.569 380.985 736.346C381.872 734.676 382.518 732.78 384.373 731.852C384.454 731.804 384.551 731.764 384.639 731.723H384.785Z" fill="#4E5255"/>
<path d="M580.377 342.216C571.495 345.935 562.218 347.968 552.795 349.501C535.361 352.341 517.912 353.599 500.389 350.179C485.32 347.234 473.38 339.917 466.265 325.888C461.941 317.361 460.182 308.156 459.399 298.717C459.246 296.878 459.424 294.748 456.963 294.208C454.503 293.659 453.284 295.305 452.284 297.168C450.824 299.887 449.525 302.694 448.097 305.429C438.755 323.298 425.266 336.642 406.486 344.628C392.449 350.598 377.677 351.897 362.769 352.518C354.451 352.865 346.15 351.825 337.889 350.865C322.666 349.106 308.137 345 294.906 336.981C294.882 336.964 294.866 336.956 294.842 336.94C295.423 336.835 296.004 336.771 296.552 336.852C304.523 338.086 312.461 337.916 320.44 336.835C336.227 334.698 349.845 327.961 361.801 317.619C369.86 310.633 375.822 301.985 381.235 292.925C381.396 292.755 381.542 292.57 381.679 292.384C381.84 292.352 382.009 292.336 382.187 292.32C390.149 293.756 398.184 293.99 406.244 293.724C415.691 293.401 424.516 290.9 432.535 285.818C443.813 278.662 447.831 267.505 448.96 255.033C450.558 237.502 449.694 219.899 449.831 202.329C449.864 197.174 449.622 196.988 444.313 196.98C433.035 196.956 421.757 196.98 410.479 196.972C398.176 196.972 386.487 199.473 375.628 205.402C374.692 205.919 373.757 206.467 372.7 206.717C372.482 206.725 372.272 206.725 372.07 206.709H372.062C371.966 206.653 371.869 206.604 371.764 206.556C364.052 198.142 355.807 190.446 345.472 185.194C333.033 178.877 319.915 176.134 306.128 176.304C315.236 171.891 324.618 168.244 334.428 165.647C356.646 159.757 379.396 158.192 402.21 157.515C416.699 157.087 431.212 157.45 445.717 157.426C451.566 157.41 452.115 156.861 452.123 150.924C452.139 137.379 452.179 123.842 451.388 110.297C450.654 97.6147 448.791 85.2314 444.031 73.3724C437.198 56.3745 424.912 45.7741 406.946 42.0631C390.44 38.6506 373.894 38.9491 357.404 42.41C353.992 43.1199 350.595 43.9992 347.401 45.4514C342.899 47.5005 342.504 50.6306 346.295 53.6962C346.812 54.1157 347.401 54.4545 347.917 54.8821C354.427 60.2549 358.937 66.8621 360.849 75.2037C363.285 85.8364 361.873 96.0981 357.533 105.884C354.274 113.249 349.248 119.348 342.076 123.422C334.275 127.835 325.812 129.19 316.954 129.666C299.827 130.578 286.242 124.108 277.32 109.78C266.388 92.2177 267.768 73.9533 277.368 56.1809C286.686 38.9168 301.651 27.7194 318.907 19.4503C336.978 10.7941 356.194 5.89723 376.056 3.36408C381.888 2.61382 387.826 2.6945 393.562 1.16977C393.691 1.07296 393.78 0.968086 393.844 0.855144C395.014 2.08138 396.611 2.05718 398.128 2.07331C406.8 2.14592 415.473 2.15398 424.145 2.07331C425.654 2.05718 427.251 2.08945 428.397 0.847076C428.461 0.976154 428.566 1.0891 428.711 1.20204C429.663 1.79095 430.744 1.83936 431.817 1.9281C448.629 3.20274 465.095 6.15538 481.012 11.8832C501.745 19.3374 518.67 31.6724 530.739 50.316C542.025 67.7656 546.744 87.2159 547.277 107.642C547.809 127.77 547.39 147.923 547.398 168.059C547.398 211.162 547.382 254.258 547.406 297.362C547.406 303.485 548.019 304.082 554.07 304.106C563.065 304.138 572.068 304.09 581.063 304.13C585.718 304.147 586.048 304.485 586.073 309.221C586.113 317.28 585.839 325.348 586.178 333.391C586.371 338.046 584.524 340.474 580.377 342.216Z" fill="white"/>
<path d="M428.332 0.669586C428.34 0.734125 428.364 0.790596 428.397 0.847068C428.453 0.790596 428.51 0.734125 428.558 0.669586H428.332ZM393.844 0.855135C393.876 0.806731 393.893 0.75026 393.909 0.701856H393.699C393.747 0.758327 393.788 0.806731 393.844 0.855135ZM381.308 292.473C379.379 293.022 378.605 294.829 377.677 296.458C372.28 305.921 365.181 313.9 356.533 320.475C339.228 333.633 319.673 338.53 298.166 336.037C296.738 335.867 295.261 335.561 294.075 336.472C293.833 336.65 293.6 336.884 293.382 337.182H293.39C293.866 337.126 294.358 337.021 294.842 336.94C295.423 336.835 296.004 336.771 296.552 336.852C304.523 338.086 312.461 337.916 320.44 336.835C336.227 334.698 349.845 327.961 361.801 317.619C369.86 310.633 375.822 301.985 381.235 292.925C381.396 292.755 381.542 292.57 381.679 292.384C381.55 292.409 381.429 292.441 381.308 292.473ZM371.764 206.556C364.052 198.142 355.807 190.446 345.472 185.194C333.033 178.877 319.915 176.134 306.128 176.304C305.459 176.312 304.789 176.328 304.111 176.352C304.345 176.594 304.587 176.788 304.837 176.941C306.467 177.99 308.419 177.497 310.202 177.489C319.439 177.449 328.313 179.329 336.881 182.588C348.336 186.936 358.243 193.632 366.577 202.668C368.069 204.281 369.4 206.362 371.82 206.677C371.893 206.693 371.974 206.701 372.062 206.709C371.966 206.653 371.869 206.604 371.764 206.556Z" fill="#4E5255"/>
<path d="M384.373 731.852C388.165 721.099 390.884 710.151 390.561 698.615C390.149 684.255 386.285 670.936 378.944 658.593C378.266 657.464 377.129 656.504 377.226 655.027C377.322 655.043 377.427 655.059 377.532 655.076C377.451 654.947 377.355 654.826 377.266 654.696C377.258 654.696 377.258 654.696 377.258 654.696C376.096 654.164 375.515 653.091 374.781 652.139C358.283 630.72 336.582 619.765 309.468 619.612C306.548 619.587 303.579 620.176 300.699 619.216C299.029 620.451 297.02 620.733 295.068 621.152C262.613 628.074 241.17 647.476 232.409 679.286C224.027 709.691 232.215 736.459 254.57 758.644C265.267 769.261 278.465 775.666 293.035 779.288C295.019 779.53 297.004 779.748 298.989 780.022C320.189 782.959 339.511 778.207 356.96 765.84C369.158 757.192 377.944 745.769 384.212 732.312C384.414 732.127 384.607 731.933 384.785 731.731H384.639C384.551 731.772 384.454 731.812 384.373 731.861V731.852ZM277.691 764.695C257.393 756.167 236.797 730.182 237.411 699.083C238.024 668.217 257.894 642.595 282.571 633.415C264.775 651.728 258.547 673.905 257.966 698.058C257.393 722.059 262.363 744.558 277.691 764.695ZM382.534 698.671C382.469 709.466 380.686 718.178 377.516 726.657C376.612 729.061 375.862 729.924 372.99 728.755C362.244 724.374 356.622 716.291 355.105 705.125C353.79 695.428 353.346 685.683 355.936 676.107C357.703 669.589 361.478 664.377 366.924 660.271C369.094 658.641 369.989 659.214 371.207 661.215C378.549 673.267 382.381 686.296 382.534 698.671Z" fill="#F38392"/>
<path d="M372.974 209.041C372.466 208.331 372.191 207.476 371.82 206.677C371.893 206.693 371.974 206.701 372.062 206.709C371.966 206.653 371.869 206.604 371.764 206.556C364.052 198.142 355.807 190.446 345.472 185.194C333.033 178.877 319.915 176.134 306.128 176.304C305.458 176.312 304.789 176.328 304.111 176.352C301.723 176.675 299.335 177.022 296.939 177.312C260.12 181.902 229.771 214.543 227.891 251.58C225.874 291.457 250.367 325.001 288.993 335.303C290.518 335.714 291.913 336.545 293.382 337.182H293.39C293.866 337.126 294.358 337.021 294.842 336.94C295.423 336.835 296.004 336.771 296.552 336.852C304.523 338.086 312.461 337.916 320.44 336.835C336.227 334.698 349.845 327.961 361.801 317.619C369.86 310.633 375.822 301.985 381.235 292.925C381.396 292.756 381.542 292.57 381.679 292.384C381.55 292.409 381.429 292.441 381.308 292.473C382.098 287.617 384.736 283.397 385.962 278.654C392.505 253.371 388.197 230.218 372.974 209.041ZM374.983 285.761C373.765 288.786 372.74 289.504 369.666 287.496C360.09 281.227 356.113 272.022 355.153 261.164C354.814 257.437 355.097 253.661 355.097 250.45C354.637 239.931 355.21 230.121 359.937 221.013C360.736 219.48 361.543 217.931 362.47 216.471C365.246 212.122 365.73 212.05 368.456 216.358C382.372 238.366 384.752 261.478 374.983 285.761ZM275.868 321.112C260.039 315.973 237.499 291.868 235.91 261.333C234.022 224.982 258.329 196.665 285.193 188.679C250.705 217.786 249.455 284.123 275.868 321.112Z" fill="#4383C4"/>
<path d="M117.417 699.164C108.858 693.46 99.3058 692.427 89.383 692.96C89.2297 692.928 89.0845 692.903 88.9312 692.887C88.9958 692.944 89.0523 693 89.1168 693.049C83.6794 694.896 77.9677 696.098 73.2241 699.615C63.9386 706.497 57.4444 715.129 55.831 726.899C55.6696 728.069 55.2179 729.198 54.8952 730.344V730.368C54.8952 730.368 54.9032 730.433 54.9032 730.465C55.1291 733.627 55.1291 736.822 55.6374 739.936C57.8397 753.271 65.7457 762.573 76.9674 769.438C82.4693 771.035 87.7776 773.262 93.6345 773.561C100.952 773.94 107.623 771.681 114.303 769.261C115.215 768.704 116.134 768.163 117.022 767.583C142.208 751.246 142.393 715.79 117.417 699.164ZM64.463 726.915C64.5518 717.565 76.8867 703.1 87.5759 702.633C84.1877 714.798 75.8541 721.978 64.463 726.915ZM106.817 763.452C98.7734 765.977 90.8593 766.026 82.6952 762.718C86.4949 756.732 89.8267 750.665 92.1421 744.115C93.1666 741.235 93.9572 738.282 94.8527 735.354C95.2883 733.942 96.0386 733.071 97.7166 733.2C99.4026 733.329 99.4027 734.426 99.6447 735.676C101.242 744.091 103.824 752.19 108.019 759.693C109.059 761.572 109.325 762.67 106.817 763.452Z" fill="#F38392"/>
<path d="M124.597 296.999C123.839 281.227 115.715 270.296 102.404 262.689C95.9176 258.978 88.7054 258.639 81.4932 258.308C74.4504 259.849 67.3673 261.204 61.3894 265.746C52.4024 272.571 46.1663 281.058 44.5609 292.497C44.4883 293.014 44.2382 293.522 44.0204 294.022C43.9478 293.958 43.8752 293.893 43.7945 293.828C43.8187 294.006 43.8429 294.191 43.8752 294.369C43.6655 302.299 44.3512 310.012 48.0218 317.304C50.9099 323.032 55.6374 327.098 59.905 331.6C60.026 331.721 60.147 331.85 60.268 331.979C61.5991 331.906 62.4543 332.874 63.4788 333.455C72.5626 338.578 82.187 340.595 92.4728 338.336C95.966 337.57 99.3543 336.303 102.791 335.262C102.96 335.157 103.13 335.044 103.299 334.94C117.119 326.122 125.42 314.198 124.597 296.999ZM85.6559 296.345C86.3094 294.837 87.3339 294.893 88.5521 294.934C90.2624 294.998 89.8913 296.297 89.9074 297.281C90.0284 307.414 92.0937 317.103 96.6356 326.195C97.4181 327.768 97.2567 328.566 95.4981 329.123C85.7043 332.221 76.3462 331.705 67.1817 326.106C74.8699 316.877 81.0333 307.075 85.6559 296.345ZM75.717 267.94C77.1449 267.537 79.2263 266.464 78.4437 269.659C76.1768 278.952 63.1158 290.303 52.7331 291.537C56.5893 279.493 63.737 271.361 75.717 267.94Z" fill="#4383C4"/>
<path d="M973.039 284.382C969.449 268.602 959.163 258.477 943.472 254.178C934.493 251.709 925.716 253.282 917.092 256.17C917.011 256.21 916.93 256.259 916.858 256.299C898.214 266.738 890.01 283.615 894.374 302.807C898.271 319.975 915.188 333.6 932.621 333.721C940.64 333.778 947.731 331.519 954.718 328.26C955.008 328.131 955.298 327.994 955.589 327.856C956.549 326.945 957.469 325.977 958.493 325.138C971.506 314.457 976.75 300.702 973.039 284.382ZM956.162 306.785C956.363 303.856 955.428 302.84 952.338 302.896C941.882 303.09 931.419 302.872 920.964 303.025C918.132 303.074 917.326 302.21 917.366 299.411C917.519 289.093 917.446 278.775 917.406 268.449C917.406 266.754 917.559 265.367 919.35 264.479C930.693 258.824 948.958 259.22 960.405 275.056C969.029 286.979 967.416 305.978 956.113 315.836C956.113 312.391 955.96 309.576 956.162 306.785Z" fill="#4383C4"/>
<path d="M89.384 692.96C89.295 692.992 89.2061 693.025 89.1172 693.049C89.0525 693 88.9959 692.944 88.9313 692.887C89.0849 692.903 89.2304 692.928 89.384 692.96Z" fill="white"/>
<path d="M44.0209 294.022C43.9643 294.136 43.9158 294.257 43.8754 294.37C43.843 294.192 43.8188 294.006 43.7945 293.828C43.8754 293.893 43.9481 293.958 44.0209 294.022Z" fill="white"/>
<path d="M384.639 731.723C384.551 731.764 384.454 731.804 384.373 731.852C384.317 732.006 384.268 732.151 384.212 732.304C384.413 732.119 384.607 731.925 384.785 731.723H384.639ZM377.266 654.696C377.242 654.809 377.234 654.922 377.225 655.027C377.322 655.043 377.427 655.059 377.532 655.076C377.451 654.947 377.355 654.825 377.266 654.696Z" fill="white"/>
<path d="M381.308 292.473C381.275 292.618 381.259 292.772 381.235 292.925C381.396 292.755 381.542 292.57 381.679 292.384C381.55 292.409 381.429 292.441 381.308 292.473ZM371.764 206.556C371.78 206.596 371.804 206.637 371.82 206.677C371.893 206.693 371.974 206.701 372.062 206.709C371.966 206.653 371.869 206.604 371.764 206.556Z" fill="white"/>
</g>
</svg>
