<svg width="655" height="533" viewBox="0 0 655 533" fill="none" xmlns="http://www.w3.org/2000/svg">
<mask id="mask0_88_903" style="mask-type:alpha" maskUnits="userSpaceOnUse" x="0" y="0" width="655" height="533">
<rect width="655" height="533" rx="30" fill="#06D6A0"/>
</mask>
<g mask="url(#mask0_88_903)">
<rect width="655" height="533" rx="30" fill="#06D6A0"/>
<path d="M-145 555.224L12.9093 38H158.617L316.526 555.224H216.038L75.3553 99.0612H94.0173L-44.5122 555.224H-145ZM-50.2544 447.469V356.237H222.498V447.469H-50.2544Z" fill="black" fill-opacity="0.05"/>
<path d="M488.516 566C460.762 566 437.195 560.732 417.815 550.196C398.675 539.42 384.08 525.173 374.032 507.453C364.222 489.494 359.317 469.739 359.317 448.188C359.317 430.229 362.069 413.826 367.572 398.98C373.075 384.133 381.927 371.083 394.129 359.829C406.57 348.335 423.199 338.756 444.014 331.094C458.37 325.826 475.476 321.156 495.335 317.086C515.193 313.015 537.683 309.184 562.805 305.592C587.927 301.761 615.561 297.57 645.707 293.02L610.537 312.416C610.537 289.429 605.034 272.547 594.028 261.771C583.022 250.996 564.599 245.608 538.76 245.608C524.404 245.608 509.451 249.08 493.899 256.024C478.347 262.969 467.461 275.301 461.241 293.02L372.955 265.004C382.764 232.917 401.187 206.816 428.223 186.702C455.259 166.588 492.105 156.531 538.76 156.531C572.973 156.531 603.359 161.799 629.916 172.335C656.474 182.871 676.572 201.069 690.209 226.931C697.865 241.298 702.411 255.665 703.847 270.033C705.282 284.4 706 300.444 706 318.163V555.224H620.585V475.486L632.788 492.008C613.886 518.109 593.43 537.026 571.418 548.759C549.646 560.253 522.012 566 488.516 566ZM509.331 489.135C527.275 489.135 542.349 486.022 554.551 479.796C566.992 473.331 576.801 466.027 583.979 457.886C591.396 449.744 596.421 442.92 599.052 437.412C604.077 426.876 606.948 414.664 607.666 400.776C608.623 386.648 609.101 374.914 609.101 365.576L637.812 372.759C608.862 377.548 585.415 381.619 567.471 384.971C549.526 388.084 535.051 390.958 524.045 393.592C513.04 396.226 503.35 399.099 494.976 402.212C485.405 406.044 477.63 410.234 471.648 414.784C465.906 419.094 461.599 423.883 458.728 429.151C456.097 434.419 454.781 440.286 454.781 446.751C454.781 455.611 456.934 463.273 461.241 469.739C465.786 475.965 472.127 480.754 480.261 484.106C488.396 487.458 498.086 489.135 509.331 489.135Z" fill="black" fill-opacity="0.05"/>
</g>
</svg>
