<svg width="220" height="116" viewBox="0 0 220 116" fill="none" xmlns="http://www.w3.org/2000/svg">
<path d="M73.4 0.119994L120.15 113.17H99.75L90.91 91.92H29.71L20.87 113.17H0.64L47.22 0.119994H73.4ZM36.51 75.43H84.11L63.03 24.26C62.18 22.05 61.67 19.67 61.67 17.29L61.5 11.85H59.12V16.78C59.12 19.33 58.61 21.71 57.59 24.09L36.51 75.43ZM200.211 28.34H219.081V113.17H200.211V70.84C200.211 55.2 186.101 42.45 168.421 42.45C150.911 42.45 136.631 55.2 136.631 70.84C136.631 86.31 146.151 99.06 157.881 99.06C169.611 99.06 179.131 88.52 179.131 75.43H197.831C197.831 97.53 179.981 115.55 157.881 115.55C135.781 115.55 117.931 95.49 117.931 70.84C117.931 46.02 140.541 25.96 168.421 25.96C176.411 25.96 184.061 27.66 190.691 30.55C195.111 32.42 198.511 35.99 200.551 40.24L203.781 47.72L206.161 46.7L201.911 37.18C200.891 34.8 200.211 32.25 200.211 29.53V28.34Z" fill="white"/>
</svg>
