<svg width="274" height="122" viewBox="0 0 274 122" fill="none" xmlns="http://www.w3.org/2000/svg">
<path d="M0.25 119L61.96 -8.10623e-06H82.19L143.9 119H125.37L78.79 27.03C76.8633 23.1767 75.4467 19.9467 74.54 17.34C73.6333 14.62 73.18 12.3533 73.18 10.54V10.37H70.97V10.54C70.97 12.3533 70.5167 14.62 69.61 17.34C68.7033 19.9467 67.2867 23.1767 65.36 27.03L18.78 119H0.25ZM22.35 95.03L30.34 80.92H113.81L121.12 95.03H22.35ZM195.92 121.04C182.093 121.04 171.95 118.717 165.49 114.07C159.03 109.423 155.8 103.133 155.8 95.2C155.8 87.38 159.03 81.1467 165.49 76.5C171.95 71.8533 182.093 69.53 195.92 69.53C206.913 69.53 216.037 70.6633 223.29 72.93C230.657 75.0833 237.797 78.2 244.71 82.28V73.61C244.71 67.7167 243.293 62.56 240.46 58.14C237.74 53.72 233.547 50.32 227.88 47.94C222.213 45.4467 215.13 44.2 206.63 44.2C198.81 44.2 192.18 45.22 186.74 47.26C181.413 49.1867 177.277 51.68 174.33 54.74C171.497 57.8 169.683 61.0867 168.89 64.6H153.25C154.043 58.48 156.423 52.9267 160.39 47.94C164.47 42.84 170.363 38.76 178.07 35.7C185.89 32.64 195.467 31.11 206.8 31.11C218.7 31.11 228.617 32.8667 236.55 36.38C244.597 39.8933 250.547 44.88 254.4 51.34C258.367 57.6867 260.35 65.28 260.35 74.12V99.62C260.35 102.453 260.973 104.55 262.22 105.91C263.467 107.27 265.337 107.95 267.83 107.95C269.53 107.95 271.4 107.667 273.44 107.1V119.68C270.607 120.587 267.717 121.04 264.77 121.04C261.03 121.04 257.8 120.36 255.08 119C252.473 117.753 250.433 115.94 248.96 113.56C247.6 111.067 246.92 108.233 246.92 105.06V103.87H244.71V104.04C244.71 106.76 242.727 109.423 238.76 112.03C234.793 114.637 229.07 116.79 221.59 118.49C214.223 120.19 205.667 121.04 195.92 121.04ZM201.19 108.8C210.71 108.8 218.927 107.78 225.84 105.74C232.867 103.587 239.157 100.81 244.71 97.41V91.29C238.023 88.0033 231.393 85.4533 224.82 83.64C218.36 81.8267 210.483 80.92 201.19 80.92C190.197 80.92 182.49 82.1667 178.07 84.66C173.65 87.1533 171.44 90.5533 171.44 94.86C171.44 99.1667 173.65 102.567 178.07 105.06C182.49 107.553 190.197 108.8 201.19 108.8Z" fill="white"/>
</svg>
