<?xml version="1.0" standalone="no"?>
<!DOCTYPE svg PUBLIC "-//W3C//DTD SVG 20010904//EN"
 "http://www.w3.org/TR/2001/REC-SVG-20010904/DTD/svg10.dtd">
<svg version="1.0" xmlns="http://www.w3.org/2000/svg"
 width="260.000000pt" height="260.000000pt" viewBox="0 0 260.000000 260.000000"
 preserveAspectRatio="xMidYMid meet">
<metadata>
Created by potrace 1.14, written by Peter Selinger 2001-2017
</metadata>
<g transform="translate(0.000000,260.000000) scale(0.100000,-0.100000)"
fill="#000000" stroke="none">
<path d="M711 877 c-102 -276 -201 -547 -222 -602 -20 -55 -35 -102 -34 -105
3 -4 192 -5 267 -1 13 1 26 30 55 121 l37 120 207 0 206 0 38 -117 c21 -65 41
-120 45 -123 10 -6 268 -5 274 1 5 5 -11 53 -82 244 -56 152 -284 770 -319
868 l-35 97 -127 0 -126 0 -184 -503z m374 -13 c33 -103 60 -191 61 -198 1 -6
5 -19 9 -28 7 -17 -4 -18 -133 -18 l-140 0 40 128 c22 70 52 166 66 214 15 49
29 88 32 88 3 0 32 -84 65 -186z"/>
<path d="M2008 1085 c-2 -2 -23 -5 -48 -8 -148 -15 -287 -131 -293 -245 l-2
-37 124 0 124 0 12 35 c28 83 163 97 207 22 19 -32 29 -120 15 -129 -5 -3 -55
-7 -111 -8 -201 -6 -309 -55 -368 -167 -17 -34 -22 -60 -23 -123 0 -70 4 -86
27 -126 53 -89 131 -137 241 -145 90 -7 142 6 202 51 25 19 47 35 49 35 3 0 7
-14 11 -30 4 -17 14 -34 23 -38 18 -9 239 -9 247 0 3 3 -2 25 -11 49 -14 36
-17 95 -21 329 -4 319 -9 348 -69 419 -38 44 -102 82 -171 100 -39 11 -158 22
-165 16z m141 -523 c8 -13 6 -121 -2 -147 -4 -11 -24 -31 -44 -45 -29 -20 -49
-25 -96 -25 -52 0 -61 3 -83 28 -42 49 -29 128 29 171 40 29 180 43 196 18z"/>
</g>
</svg>
